<svg width="152" height="197" viewBox="0 0 152 197" fill="none" xmlns="http://www.w3.org/2000/svg">
<circle cx="76" cy="97" r="76" fill="#122F72"/>
<rect x="115" width="37" height="111" rx="18.5" fill="#122F72"/>
<rect x="27" y="134" width="37" height="63" rx="18.5" fill="#122F72"/>
<circle cx="76" cy="97" r="44" fill="#2E8EF1"/>
<rect x="32" y="85" width="27" height="105" rx="13.5" fill="#2E8EF1"/>
<path d="M106.63 84.1115L106.624 84.0145L106.087 76.7451C106.069 76.4991 105.944 76.2609 105.727 76.0989C105.51 75.9369 105.244 75.8874 105.005 75.9371L97.8912 77.4765L97.7717 77.5013C97.6713 77.536 97.58 77.5994 97.5126 77.6895C97.3296 77.9345 97.3886 78.2902 97.6477 78.4838L105.725 84.5189C105.984 84.7124 106.342 84.6682 106.525 84.4232C106.594 84.3302 106.629 84.2198 106.63 84.1115Z" fill="white"/>
<path d="M76.2 74L97.1578 99.4013H55.2422L76.2 74Z" fill="#122F72"/>
<rect x="58.5996" y="98.2002" width="35.2" height="19.8" fill="#122F72"/>
<rect x="69.7998" y="99.3984" width="5" height="5" fill="#2E8EF1"/>
<rect x="77.2002" y="99.3984" width="5" height="5" fill="#2E8EF1"/>
<rect x="69.7998" y="105.801" width="5" height="5" fill="#2E8EF1"/>
<rect x="77.2002" y="105.801" width="5" height="5" fill="#2E8EF1"/>
<path d="M54.436 126.95L74.4467 95.435C74.746 94.9637 75.3732 94.8287 75.8399 95.1352L87.2624 102.637C87.7301 102.944 88.3588 102.807 88.6572 102.334L102.771 79.9528" stroke="white" stroke-width="4" stroke-linecap="round"/>
</svg>
